<mxfile host="app.diagrams.net" modified="2024-02-07T04:29:21.289Z" agent="Mozilla/5.0 (Macintosh; Intel Mac OS X 10_15_7) AppleWebKit/537.36 (KHTML, like Gecko) Chrome/121.0.0.0 Safari/537.36" version="21.7.5" etag="yYml_oQyi__3F4d6PEKK" type="github">
  <diagram name="Page-1" id="D4yONLt7nFBpFXjoukeY">
    <mxGraphModel>
      <root>
        <mxCell id="0" />
        <mxCell id="1" parent="0" />
      </root>
    </mxGraphModel>
  </diagram>
</mxfile>
